<?xml version="1.0" encoding="UTF-8" standalone="no"?>
<!-- Created with Inkscape (http://www.inkscape.org/) -->

<svg
   xmlns:dc="http://purl.org/dc/elements/1.1/"
   xmlns:cc="http://creativecommons.org/ns#"
   xmlns:rdf="http://www.w3.org/1999/02/22-rdf-syntax-ns#"
   xmlns:svg="http://www.w3.org/2000/svg"
   xmlns="http://www.w3.org/2000/svg"
   xmlns:sodipodi="http://sodipodi.sourceforge.net/DTD/sodipodi-0.dtd"
   xmlns:inkscape="http://www.inkscape.org/namespaces/inkscape"
   width="342.00128"
   height="623.48029"
   id="svg2"
   version="1.1"
   inkscape:version="0.91 r13725"
   sodipodi:docname="goblin.svg">
  <title
     id="title4182">faun</title>
  <defs
     id="defs4">
    <inkscape:perspective
       sodipodi:type="inkscape:persp3d"
       inkscape:vp_x="0 : 526.18109 : 1"
       inkscape:vp_y="0 : 1000 : 0"
       inkscape:vp_z="744.09448 : 526.18109 : 1"
       inkscape:persp3d-origin="372.04724 : 350.78739 : 1"
       id="perspective10" />
    <inkscape:perspective
       id="perspective2899"
       inkscape:persp3d-origin="0.5 : 0.33333333 : 1"
       inkscape:vp_z="1 : 0.5 : 1"
       inkscape:vp_y="0 : 1000 : 0"
       inkscape:vp_x="0 : 0.5 : 1"
       sodipodi:type="inkscape:persp3d" />
    <inkscape:perspective
       id="perspective2970"
       inkscape:persp3d-origin="0.5 : 0.33333333 : 1"
       inkscape:vp_z="1 : 0.5 : 1"
       inkscape:vp_y="0 : 1000 : 0"
       inkscape:vp_x="0 : 0.5 : 1"
       sodipodi:type="inkscape:persp3d" />
    <inkscape:perspective
       id="perspective3168"
       inkscape:persp3d-origin="0.5 : 0.33333333 : 1"
       inkscape:vp_z="1 : 0.5 : 1"
       inkscape:vp_y="0 : 1000 : 0"
       inkscape:vp_x="0 : 0.5 : 1"
       sodipodi:type="inkscape:persp3d" />
    <inkscape:perspective
       id="perspective3239"
       inkscape:persp3d-origin="0.5 : 0.33333333 : 1"
       inkscape:vp_z="1 : 0.5 : 1"
       inkscape:vp_y="0 : 1000 : 0"
       inkscape:vp_x="0 : 0.5 : 1"
       sodipodi:type="inkscape:persp3d" />
  </defs>
  <sodipodi:namedview
     id="base"
     pagecolor="#ffffff"
     bordercolor="#666666"
     borderopacity="1.0"
     inkscape:pageopacity="0.0"
     inkscape:pageshadow="2"
     inkscape:zoom="0.74821931"
     inkscape:cx="-425.87257"
     inkscape:cy="429.11435"
     inkscape:document-units="px"
     inkscape:current-layer="layer1"
     showgrid="false"
     inkscape:window-width="1920"
     inkscape:window-height="1031"
     inkscape:window-x="0"
     inkscape:window-y="0"
     inkscape:window-maximized="1" />
  <metadata
     id="metadata7">
    <rdf:RDF>
      <cc:Work
         rdf:about="">
        <dc:format>image/svg+xml</dc:format>
        <dc:type
           rdf:resource="http://purl.org/dc/dcmitype/StillImage" />
        <dc:title>faun</dc:title>
        <dc:date>2011-02-26</dc:date>
        <dc:creator>
          <cc:Agent>
            <dc:title>tzunghaor (Prim András)</dc:title>
          </cc:Agent>
        </dc:creator>
        <cc:license
           rdf:resource="http://creativecommons.org/licenses/publicdomain/" />
        <dc:publisher>
          <cc:Agent>
            <dc:title>openclipart.org</dc:title>
          </cc:Agent>
        </dc:publisher>
        <dc:subject>
          <rdf:Bag>
            <rdf:li>faun</rdf:li>
            <rdf:li>mithology</rdf:li>
            <rdf:li>cartoon</rdf:li>
            <rdf:li />
          </rdf:Bag>
        </dc:subject>
      </cc:Work>
      <cc:License
         rdf:about="http://creativecommons.org/licenses/publicdomain/">
        <cc:permits
           rdf:resource="http://creativecommons.org/ns#Reproduction" />
        <cc:permits
           rdf:resource="http://creativecommons.org/ns#Distribution" />
        <cc:permits
           rdf:resource="http://creativecommons.org/ns#DerivativeWorks" />
      </cc:License>
    </rdf:RDF>
  </metadata>
  <g
     inkscape:label="1. réteg"
     inkscape:groupmode="layer"
     id="layer1"
     transform="translate(-78.821637,-221.52725)">
    <path
       style="fill:#009b00;fill-opacity:1;stroke:none"
       d="m 252.25,223.15625 c -18.81519,5.05442 -31.54438,21.93887 -42.24926,37.02767 -16.1899,-2.27835 -26.7765,10.70407 -40.82754,16.29679 -16.30245,9.26155 -28.46353,-32.36958 -6.47898,-20.60362 -6.15181,26.9059 34.93668,5.43922 19.81857,-11.83388 -7.49595,-25.43264 -32.35194,-18.80886 -47.81008,-4.97536 -20.91942,8.8817 -16.35665,29.77562 -11.75365,47.54363 3.53696,11.15028 4.01847,38.80651 -13.76156,24.10727 -28.369403,8.47634 -10.502358,37.04626 -17.399764,55.76225 -17.124065,15.1161 -13.424953,43.67562 3.537556,57.52179 9.959388,16.66464 36.755128,25.62675 46.947308,38.73777 -7.33251,8.07126 -5.37566,17.13542 -3.86997,24.29833 -5.7099,9.14345 -8.46316,21.04575 -14.06374,30.79374 -6.5296,15.93519 -6.04122,33.53308 -8.81541,50.05028 -17.581197,22.16159 11.72356,66.97204 28.6762,86.5124 70.65791,18.84364 146.65795,-10.30404 214.24209,-20.45868 4.52516,-17.91628 1.92165,-24.37076 19.21947,-54.15741 6.89959,-17.48403 4.98473,-66.50058 2.48448,-66.64765 -4.81744,-3.21163 26.41845,-25.19326 38.41678,-43.16282 0.47638,-19.64259 -16.68529,-33.68271 -26.65232,-49.08256 -17.9271,-22.91673 -36.58026,-46.8348 -63.8376,-59.04622 -14.76566,-1.46603 -28.87178,-5.08933 -8.88931,-19.02203 11.02108,-9.75523 23.84353,-38.49717 -2.90031,-30.05288 -19.26308,6.68267 -39.34493,-15.83245 -44.04757,-30.62637 2.28346,-13.45851 28.21699,-30.09885 8.10836,-42.60744 -8.26772,-6.959 -16.81755,-15.14009 -28.09375,-16.375 z m 6.84375,31.09375 c 15.49877,2.99247 5.72121,23.60218 8.65004,32.38317 -20.38335,-0.33604 -34.24519,-25.99373 -8.65004,-32.38312 l 0,-5e-5 z"
       id="path3256"
       sodipodi:nodetypes="cccccccccccccccccccccccccccccc" />
    <path
       style="opacity:0.29411765000000001;fill:#502d16;fill-opacity:1;stroke:none"
       d="m 169.6875,72.21875 c -7.1897,5.96145 -15.22941,13.59551 -21.21875,17.15625 -10.43824,1.27486 -15.31176,-4.65915 -25.75,-11.09375 -1.65213,3.33499 -10.63958,1.44372 -13.96875,4.6875 -4.93665,4.81003 -4.70755,14.82093 -8.75,20.5625 5.29939,6.9978 3.0112,11.82755 -1.03125,16.15625 l -40.40625,0 C 39.87644,148.47626 37.94351,174.95876 35,198.5 c 9.54629,-1.71392 16.83124,1.14636 24.59375,3 4.33418,2.03649 10.94333,3.21492 5.03125,9.09375 L 51.5,213.625 c 16.84058,10.55205 19.43672,18.87372 16.15625,22.71875 -3.00808,11.80952 11.45435,14.82203 10.625,22.21875 4.22147,3.16082 10.03247,3.64089 14.625,4.5625 4.08123,0.819 10.06994,1.6015 13.28125,-2.71875 9.72239,-13.07976 26.81383,-27.32992 43.8125,-34.15625 11.98334,-3.88419 14.89424,-4.15433 20.6875,-5.5625 0,0 8.14237,-17.17559 13.125,-25.25 6.52819,-10.579 14.76328,-20.04694 22.375,-29.90625 36.99987,-42.0919 89.71301,21.52828 110,53.15625 20.28699,31.62797 11.40374,40.04357 12.3125,43.59375 4.00649,-4.43445 7.98233,-8.92509 11.25,-13.84375 1.79848,-9.30678 -4.61892,-17.9564 -9.21875,-25.53125 -16.47763,-23.00698 -34.01536,-45.85076 -54.21875,-65.65625 -10.63673,-7.32764 -21.51118,-15.31322 -33.84375,-19.8125 -3.25501,-1.7009 -11.24078,-0.59232 -10.4375,-5.9375 1.58481,-2.00942 3.24042,-4.01585 4.90625,-6.03125 l -4.4375,2.71875 8.96875,-7.71875 8.96875,-15.8125 c -0.69154,-3.87096 -0.18858,-8.936422 -5.65625,-8.03125 -6.49327,1.07496 -14.1985,4.95742 -18.6875,6.375 -3.26079,1.02972 -15.90024,14.83096 -22.625,22.34375 -0.39552,-1.87872 -0.66503,-3.81988 -0.96875,-5.65625 l -19.6875,9.09375 -11.09375,-13.125 C 182.85044,108.72787 183.7455,97.70425 188.875,88.375 183.07876,82.78706 182.66075,75.41436 169.6875,72.21875 z M 27.8125,121.5 c -2.451488,0.11029 -5.325912,2.06024 -5.125,4.75 0.562573,2.76139 3.879029,3.19485 6.1875,3.5625 2.10107,0.0959 4.476341,0.91582 6.4375,-0.15625 2.075139,-1.68943 0.837622,-4.90908 -1.15625,-6.125 C 32.336129,122.21453 30.067723,121.4303 27.8125,121.5 z m -11.90625,28.65625 c -2.84484,0.27389 -3.605001,3.9167 -2.46875,6.125 1.041693,2.58489 3.288691,5.64682 6.46875,5.03125 2.779485,-0.70189 4.902598,-3.08632 6.25,-5.5 0.760089,-2.31772 -1.766454,-3.9287 -3.75,-4.25 -2.139838,-0.51286 -4.275619,-1.37223 -6.5,-1.40625 z M 101.5,160.59375 c 12.16995,-0.19956 15.83163,3.85502 20.1875,7.5625 -13.13198,2.02031 -13.0595,12.51171 -21.1875,12.125 -4.94227,-0.23514 -15.54542,-5.40269 -12.125,-8.5625 l 6.5625,-6.0625 6.5625,-5.0625 z m 132.34375,60.625 c -23.8397,34.71706 -35.50854,37.3952 -61.625,53.53125 -7.25213,3.63483 -16.15625,9.09375 -16.15625,9.09375 19.16446,-3.86277 70.0084,19.64237 73.21875,43.4375 6.10761,45.2697 -45.72331,88.60818 -94.4375,95.4375 l 26.25,7.59375 30.8125,-12.625 66.6875,-39.40625 -2.4375,-4.4375 19.375,-17.28125 L 301,351 304.53125,320.1875 300.5,289.90625 314.65625,276.25 c -9.62591,-1.8748 -16.93344,-5.74844 -17.1875,-15.65625 -29.00326,-7.88683 -53.42293,-20.74463 -63.625,-39.375 z"
       transform="translate(78.821637,221.52725)"
       id="path3277"
       sodipodi:nodetypes="cccscccccccccssccscsccccccccccssccccccccccccccccccccsccccccscccccccccccc" />
    <path
       style="fill:#ffffff;fill-opacity:1;stroke:none"
       d="m 150.51273,356.87215 -5.05076,25.25382 28.78934,4.04061 8.08122,-7.57615 -14.14213,-19.69797 -17.67767,-2.02031 z"
       id="path3268" />
    <path
       style="fill:#ffffff;fill-opacity:1;stroke:none"
       d="m 103.03556,350.30616 13.63706,3.03046 -9.59645,18.68782 -9.596449,0.50508 -3.535534,-5.05076 9.091373,-17.1726 z"
       id="path3270" />
    <path
       id="path3274"
       style="fill:#f4eed7;fill-opacity:1;stroke:none"
       d="m 162.70379,227.80843 c -15.78861,2.69962 -29.47979,13.12062 -39.52222,25.19068 -4.98068,7.1813 -1.26281,16.72735 -0.12626,24.62247 2.33458,8.98274 1.38615,19.12083 4.64038,27.84233 4.4039,2.83704 8.45054,-3.57421 11.90871,-5.64678 4.34737,-4.07106 12.17068,-10.0372 7.4736,-16.63971 -1.65598,-4.05767 -0.1892,-8.56001 4.07217,-10.03839 4.24823,-6.08631 -8.10935,-11.62574 -3.44083,-17.80394 3.89791,-4.82436 14.55913,-7.15878 16.76222,0.31567 2.08889,3.49269 -0.94641,11.53846 5.36644,11.11168 7.35212,-2.0469 16.38417,-8.39234 13.16355,-17.1726 -3.16423,-7.96222 -7.88618,-16.26758 -15.18386,-21.0238 -1.5984,-0.71714 -3.37803,-0.94146 -5.1139,-0.75761 z m 89.27223,-2.87262 c -11.43056,3.43784 -19.69495,13.19852 -28.26461,20.98828 -9.15675,9.60421 -13.04499,22.89949 -18.17349,34.85482 -3.23999,7.29283 -5.74276,17.18388 1.51788,23.10663 6.05361,7.44553 17.00726,7.39967 25.38009,4.89293 9.50892,-4.99571 6.72887,-17.15279 8.29062,-25.91019 0.81018,-10.94462 5.11994,-22.81205 14.059,-29.5535 5.20812,-1.23522 11.09079,1.88279 14.80505,5.46114 2.4698,6.06985 -5.80949,12.03823 -2.80949,17.99334 4.97598,2.41061 9.37575,-3.89558 12.91101,-6.62913 8.55894,-6.66156 9.66337,-20.75946 1.04172,-27.84232 -8.02293,-7.18314 -16.8305,-15.15554 -27.71606,-17.39357 -0.34724,0.0105 -0.69601,-0.022 -1.04172,0.0316 z" />
    <path
       style="opacity:0.46666667;fill:#a0892c;fill-opacity:1;stroke:none"
       d="m 220.71429,310.21932 c 0,0 0.76819,-45.78285 15.35714,-60.71428 6.217,-6.36295 17.00203,-8.94147 25.71428,-7.14286 5.38964,1.11267 9.37531,6.09532 12.85715,10.35714 2.45915,3.01004 5.35714,10.35715 5.35714,10.35715 l 7.5,-6.78572 c 1.20542,10.56957 -7.58579,17.37325 -17.85714,21.78572 L 265.35714,274.86218 270,260.21932 c -2.63397,-2.9226 -5.54952,-5.73257 -12.85714,-6.78571 -5.29267,4.02529 -11.52612,6.63939 -13.21429,16.07143 -5.8411,13.50784 -3.23911,22.19106 -2.85714,32.14286 l -11.07143,10 -9.28571,-1.42858 z"
       id="path4065"
       sodipodi:nodetypes="ccsscccccccccc" />
    <path
       style="opacity:0.46666667;fill:#a0892c;fill-opacity:1;stroke:none"
       d="m 140.35714,299.50504 c -1.86498,-14.92073 -8.22616,-25.34527 -5,-45.35714 1.94372,-12.05691 18.94765,-14.97615 30.35715,-12.14286 3.26133,0.80988 8.03864,14.85818 12.5,12.14285 4.45324,-4.80176 -2.10878,-18.92857 -4.64286,-18.92857 l 13.21428,20 -16.07142,12.85715 -6.07143,-1.07143 -0.71429,-12.14286 -7.5,-3.57143 -7.85714,5.35715 3.92857,10.35714 1.07143,8.57143 -5.71429,2.14285 1.78572,10.71429 2.14285,1.07143 -11.42857,10 z"
       id="path4067"
       sodipodi:nodetypes="csscccccccccccccc" />
    <path
       style="fill:#808080;fill-opacity:1;stroke:none"
       d="m 228.08403,784.90634 c -2.09279,0.22039 -4.56048,1.48829 -3.70536,4.01786 -2.64803,-0.24285 -4.03517,3.08257 -6.89732,2.16518 -3.63753,-0.51906 -8.50248,1.39821 -11.27296,-1.05176 -1.32423,-2.28054 -5.26899,-6.0661 -6.85204,-1.87235 -0.19004,3.17842 -3.81173,2.08491 -5.35714,4.21875 -7.21113,7.99278 -11.82121,18.02401 -16.25725,27.74395 -1.6915,2.85359 -0.2545,8.19338 3.86886,6.94355 8.29914,-2.79752 17.42055,-0.31259 26.00446,-1.67411 4.38084,-1.14845 8.96512,-1.34515 13.30357,-2.45536 6.09965,-4.24461 7.3588,-12.42884 10.40815,-18.76493 1.51913,-5.48354 5.34803,-10.73962 4.92667,-16.52524 -0.8536,-2.7107 -4.30537,-0.82767 -5.33482,-0.15625 0.0382,-1.48613 -1.3335,-2.81414 -2.83482,-2.58929 z"
       id="path4084" />
    <path
       style="fill:#808080;fill-opacity:1;stroke:none"
       d="m 335.42778,798.0983 c -7.7781,1.25693 -13.34447,8.26898 -16.99801,14.7661 -2.7039,6.43782 -6.82226,13.10301 -6.28324,20.27855 1.69654,5.4552 8.77539,5.7429 13.45982,6.69643 9.31877,0.82434 18.89999,-0.56187 27.79783,-3.0841 2.27262,-2.93259 1.08174,-7.60646 2.40306,-11.13465 1.39237,-5.52015 2.76979,-11.34098 0.14059,-16.76801 -0.0606,-2.68601 -3.14796,-6.08128 -5.34148,-3.27664 -1.53401,1.99084 -3.71886,-2.07226 -5.44643,-2.70089 -2.90448,-2.06474 -5.9172,-4.92547 -9.73214,-4.77679 z"
       id="path4086" />
    <path
       style="fill:#f9f9f9;fill-opacity:1;stroke:none"
       d="m 193.57143,791.6479 -18.92857,33.92857 c 5.54581,3.41198 3.24782,1.41347 9.64285,1.42857 L 200,789.86218 l -6.42857,1.78572 z"
       id="path4088"
       sodipodi:nodetypes="ccccc" />
    <path
       style="fill:#f9f9f9;fill-opacity:1;stroke:none"
       d="M 325.71429,801.6479 315,817.71933 l -4.28571,18.92857 7.14286,3.21428 14.64285,-41.07143 -6.78571,2.85715 z"
       id="path4090"
       sodipodi:nodetypes="cccccc" />
    <path
       style="fill:#000000"
       d="m 251.125,221.53125 c -4.218,0.0886 -7.78198,1.86874 -12.3125,5.96875 -2.2,1.99094 -4.28291,3.6122 -4.65625,3.625 -0.37334,0.0128 -2.36515,1.60625 -4.40625,3.53125 -2.04109,1.925 -4.19485,3.5 -4.8125,3.5 -0.61765,0 -1.58208,0.84857 -2.125,1.90625 -0.54292,1.05767 -3.02965,4.54517 -5.53125,7.75 -2.5016,3.20482 -5.36142,7.20964 -6.34375,8.875 -1.75585,2.9767 -1.89852,3.00685 -8.65625,2.625 -6.63838,-0.3751 -7.08036,-0.2368 -13.15625,3.71875 -3.46037,2.25277 -7.0363,4.79159 -7.9375,5.65625 -3.49138,3.34983 -12.97,7.46875 -17.21875,7.46875 -5.80697,0 -7.79212,-1.72224 -8.25,-7.09375 -0.27475,-3.22323 -1.0843,-4.95301 -2.90625,-6.4375 -4.43783,-3.61581 -2.90259,-6.43978 4.1875,-7.78125 2.61893,-0.49551 3.44236,-0.1684 4.78125,1.875 1.20634,1.84111 1.33075,2.93951 0.5625,4.375 -0.56635,1.05824 -1.03125,3.53884 -1.03125,5.5 0,2.9369 0.39232,3.5625 2.09375,3.5625 1.13616,0 2.82366,0.37218 3.75,0.84375 2.42412,1.23402 11.54214,-3.22964 16.28125,-7.96875 3.36405,-3.36405 3.875,-4.47569 3.875,-8.40625 0,-5.57104 -1.48719,-9.24007 -6.84375,-16.875 -6.67585,-9.51536 -11.37108,-14.59375 -13.53125,-14.59375 -4.12089,0 -18.93198,5.22882 -22.84375,8.0625 -2.23214,1.61695 -4.55127,2.95685 -5.15625,2.96875 -1.69919,0.0334 -13.85792,9.95286 -18.21875,14.875 -3.72676,4.20649 -3.8961,4.6988 -3.8125,11 0.0481,3.62804 0.82071,9.10278 1.71875,12.15625 0.89803,3.05347 1.84505,7.55347 2.09375,10 0.2487,2.44653 0.94665,6.63802 1.5625,9.34375 0.61586,2.70573 0.80824,6.30573 0.40625,8 -0.89813,3.78534 -0.61395,5.60066 1.25,7.6875 1.27555,1.42808 1.0547,1.9349 -2.0625,4.3125 l -3.53125,2.65625 -4.5,-2.5 -4.53125,-2.53125 -5.34375,2.375 C 97.795006,314.29282 94.8512,317.817 91,327.15625 c -3.20696,7.77694 -3.28541,8.97855 -0.6875,12.28125 1.71295,2.17767 2,4.05778 2,13.09375 l 0,10.53125 -3.90625,4.125 c -2.15691,2.26739 -5.17183,7.05876 -6.6875,10.625 -5.01971,11.81094 -3.43564,26.30287 4.125,37.84375 4.01188,6.12391 22.61353,24.19771 31.90625,31 3.75682,2.75 9.37721,6.87792 12.46875,9.1875 3.09154,2.30958 6.15625,4.2221 6.84375,4.25 1.81985,0.0739 1.55571,1.86021 -0.90625,5.84375 -3.13317,5.06957 -4.07337,12.36148 -2.1875,16.875 1.76614,4.22698 1.27227,6.8853 -2.15625,11.9375 -3.40179,5.01276 -5.08795,11.40565 -3.3125,12.53125 1.2847,0.81447 1.10955,0.98452 -1.3125,1.25 -1.45942,0.15997 -7.38131,16.55738 -9.375,25.9375 -0.84144,3.9589 -1.83938,13.20045 -2.1875,20.5625 -0.55005,11.6322 -0.84188,13.44283 -2.375,13.84375 -2.50561,0.65523 -11.55935,11.66979 -12.875,15.65625 -1.179174,3.57294 -0.0241,8.625 1.96875,8.625 0.6928,0 0.80884,1.72958 0.375,5 -0.51448,3.87836 -0.35077,5.0355 0.71875,5.125 0.75836,0.0634 2.05,0.1759 2.875,0.25 0.88355,0.0793 1.64438,1.3579 1.84375,3.125 0.18617,1.65 0.70691,3.45 1.15625,4 0.44935,0.55 1.61056,3.7 2.5625,7 2.12347,7.36121 8.9172,21.88324 11.34375,24.25 1.54063,1.50267 14.72715,20.29187 17.59375,25.0625 3.4331,5.71341 6.95118,9.32089 8.65625,8.875 3.18783,-0.83363 11.76942,6.34162 13.71875,11.46875 0.63523,1.67078 2.04457,2.91549 3.8125,3.34375 1.88781,0.4573 4.74116,3.11422 8.65625,8.09375 3.20515,4.07657 6.26029,7.40625 6.78125,7.40625 0.52097,0 1.35223,-1.125 1.875,-2.5 1.2396,-3.26039 2.28102,-3.15165 5.40625,0.5625 1.42929,1.69862 3.58798,3.06755 4.84375,3.09375 1.24471,0.026 4.02968,0.79558 6.1875,1.6875 2.92352,1.2084 4.01341,1.30353 4.3125,0.40625 0.29267,-0.87799 1.07722,-0.7717 2.875,0.40625 1.35608,0.88854 4.33662,1.79388 6.625,2 2.28837,0.20613 4.4168,0.70807 4.71875,1.125 0.30196,0.41694 5.87373,0.8221 12.375,0.875 6.64523,0.0541 12.26431,0.54556 12.84375,1.125 0.7076,0.7076 0.33066,3.32988 -1.1875,8.375 -4.75537,15.80298 -7.17923,22.82911 -8.0625,23.375 -0.50674,0.31318 -0.9375,1.46847 -0.9375,2.53125 0,1.06279 -1.58249,4.0095 -3.53125,6.5625 -1.94875,2.55301 -4.15467,5.82785 -4.90625,7.28125 -2.24879,4.34867 -7.77331,9.62994 -12.5625,12.03125 -2.475,1.24098 -6.17301,3.13543 -8.21875,4.1875 -2.91433,1.49877 -4.85072,1.77258 -9.03125,1.28125 l -5.34375,-0.625 0.0625,5.59375 c 0.0478,4.86475 -0.3313,5.94091 -2.71875,8.15625 -1.5125,1.40347 -2.75,2.94556 -2.75,3.4375 0,1.40454 -1.78113,5.17302 -4.53125,9.53125 -1.38824,2.2 -3.22493,5.575 -4.09375,7.5 -0.86883,1.925 -2.43167,4.69635 -3.46875,6.15625 -2.4221,3.40958 -2.39068,4.9491 0.21875,7.75 1.98465,2.13027 2.66714,2.21072 10.75,1.65625 4.74695,-0.32564 12,-0.62015 16.125,-0.65625 4.125,-0.0361 8.85,-0.44286 10.5,-0.9375 1.65,-0.49464 4.6575,-1.0731 6.65625,-1.28125 3.61689,-0.37666 9.84375,-3.9991 9.84375,-5.71875 0,-0.49625 1.125,-3.36894 2.5,-6.375 1.375,-3.00605 2.52825,-6.05851 2.53125,-6.78125 0.003,-0.72275 0.61359,-2.50942 1.375,-3.96875 0.76142,-1.45933 1.91398,-4.38433 2.5625,-6.5 2.08483,-6.80137 3.21496,-8.28018 6.71875,-8.9375 1.96643,-0.3689 3.3125,-1.23788 3.3125,-2.09375 0,-0.79933 0.87097,-3.54804 1.9375,-6.125 1.31598,-3.17969 2.12093,-8.06178 2.46875,-15.1875 0.57712,-11.82336 2.22826,-17.82839 9.15625,-33.5 0.97256,-2.2 2.85207,-6.925 4.1875,-10.5 4.16925,-11.16124 4.68978,-12.41175 7,-16.3125 1.2375,-2.0895 2.25,-4.43931 2.25,-5.21875 0,-1.74806 5.06514,-4.46875 8.3125,-4.46875 1.32024,0 3.71792,0.41553 5.3125,0.9375 1.59457,0.52197 5.125,1.16928 7.875,1.4375 6.05712,0.59076 14.97657,2.1475 20.1875,3.5 2.11187,0.54814 6.5125,1.50491 9.8125,2.15625 7.2778,1.43645 15.11945,3.76856 18.5,5.5 1.375,0.70425 3.9778,1.84079 5.75,2.5 l 3.21875,1.1875 -0.4375,10.90625 c -0.2371,6.00559 -0.76694,11.48472 -1.1875,12.15625 -0.42055,0.67153 -0.81195,1.66875 -0.84375,2.21875 -0.21331,3.69193 -1.8749,10.68886 -3.4375,14.5 -1.01477,2.475 -3.7148,10.35 -6.03125,17.5 -2.31645,7.15 -5.0815,14.22852 -6.125,15.71875 -1.04351,1.49023 -1.90625,3.00689 -1.90625,3.375 0,0.36811 -1.4625,2.34748 -3.25,4.40625 -4.80615,5.53553 -13.14353,17.85687 -15.5625,23 -1.16407,2.475 -3.26798,8.5005 -4.6875,13.40625 -3.27479,11.31743 -3.106,11.50317 10.1875,12.75 5.41179,0.50759 10.9375,1.33207 12.3125,1.8125 3.4027,1.18892 3.8405,1.17466 6.09375,-0.0312 1.07877,-0.57734 5.42915,-1.36484 9.65625,-1.75 7.19861,-0.65592 7.82571,-0.90806 9.84375,-3.90625 1.52864,-2.27107 2.18645,-4.8569 2.28125,-8.96875 0.192,-8.32866 1.11616,-12.1929 3.25,-13.6875 2.32214,-1.62649 7.875,-11.90683 7.875,-14.5625 0,-1.07793 0.45,-2.22258 1,-2.5625 2.05245,-1.26848 0.94287,-6.27241 -2.34375,-10.59375 -5.00721,-6.58361 -5.7707,-8.50229 -5.53125,-13.75 0.12034,-2.63731 -0.0455,-5.24814 -0.375,-5.78125 -0.64906,-1.05021 2.02208,-11.69629 5.71875,-22.875 2.86106,-8.65181 5.52233,-19.49626 5.28125,-21.5 -0.15359,-1.27651 1.78594,-6.02399 5.40625,-13.25 0.47848,-0.95504 0.84375,-2.57079 0.84375,-3.59375 0,-1.02297 0.67501,-3.19002 1.5,-4.84375 0.82499,-1.65374 1.78502,-5.68468 2.125,-8.9375 0.58763,-5.62214 0.46808,-6.14609 -2.78125,-10.40625 -2.30224,-3.01844 -4.38806,-4.62537 -6.375,-4.96875 -2.126,-0.36742 -3.5274,-1.55566 -4.96875,-4.25 -1.65488,-3.09349 -2.53714,-3.748 -5.125,-3.75 -4.60163,-0.004 -5.87753,-2.23609 -5.71875,-9.90625 0.10273,-4.96239 0.78968,-7.89109 2.78125,-11.8125 3.37532,-6.64602 4.4149,-7.21872 7.03125,-3.9375 3.12613,3.92055 5.23353,3.4159 6.71875,-1.59375 0.693,-2.3375 2.72717,-5.66005 4.53125,-7.375 3.86596,-3.67495 3.91736,-4.10099 1.21875,-13.9375 -2.43294,-8.86814 -2.00545,-10.11482 5.40625,-15.4375 2.42526,-1.7417 4.95941,-4.35168 5.625,-5.8125 1.06346,-2.33403 0.95336,-2.81726 -0.875,-4.03125 -2.0524,-1.36274 -2.01407,-1.46218 1.78125,-6.03125 2.11612,-2.54753 3.63257,-5.3 3.375,-6.125 -0.76486,-2.44986 -3.39786,-4 -6.8125,-4 -3.18034,0 -3.20697,-0.0299 -2.375,-3.71875 0.8827,-3.9138 -0.13211,-6.28125 -2.6875,-6.28125 -1.15059,0 -1.26987,-2.03918 -0.6875,-11.75 0.38757,-6.4625 0.68995,-13.325 0.65625,-15.25 -0.12084,-6.90277 -1.49651,-23.51825 -2.28125,-27.71875 -0.76421,-4.0906 -0.64185,-4.42676 2.875,-7.53125 2.02478,-1.78737 6.7407,-5.95 10.46875,-9.25 3.72805,-3.3 7.42845,-7.2375 8.21875,-8.75 0.79031,-1.5125 2.06134,-2.75 2.8125,-2.75 0.75116,0 2.07487,-1.78157 2.9375,-3.9375 0.86263,-2.15592 2.40169,-4.17125 3.4375,-4.5 1.0358,-0.32875 3.2809,-2.54371 5,-4.9375 2.96087,-4.12294 3.08969,-4.65354 2.25,-9.75 -0.95956,-5.82401 -1.94946,-8.43254 -5.34375,-13.96875 -5.83566,-9.51818 -12.03876,-18.04226 -16.84375,-23.15625 -1.42412,-1.5157 -4.48605,-5.55064 -6.78125,-8.96875 -2.29521,-3.41812 -6.08464,-8.25881 -8.4375,-10.75 -2.35286,-2.49118 -5.60785,-6.33125 -7.21875,-8.53125 -7.85339,-10.72537 -23.06379,-25.5 -26.25,-25.5 -0.61171,0 -2.69063,-1.39535 -4.625,-3.09375 -1.93437,-1.6984 -6.55899,-4.66359 -10.28125,-6.59375 -3.72227,-1.93016 -7.94476,-4.13556 -9.375,-4.90625 -1.43024,-0.77068 -4.80524,-1.67951 -7.5,-2.03125 -8.27272,-1.0798 -8.20199,-1.72342 0.90625,-10.75 5.82693,-5.77468 8.63823,-9.41629 9.625,-12.40625 0.76762,-2.32592 1.70811,-4.21875 2.09375,-4.21875 1.02525,0 4.96875,-10.76946 4.96875,-13.5625 0,-5.61139 -9.91803,-7.1178 -23.8125,-3.59375 -6.04191,1.5324 -7.44572,1.61866 -7.875,0.5 -0.28666,-0.74703 -1.70259,-1.365 -3.15625,-1.375 -1.83379,-0.012 -3.34156,-0.98053 -4.90625,-3.21875 -1.24034,-1.77425 -3.94034,-4.16337 -6,-5.3125 -3.12453,-1.74324 -3.80301,-2.71225 -4.0625,-5.78125 -0.26605,-3.14661 -0.88037,-3.96845 -4.25,-5.6875 -3.94956,-2.01492 -4.80349,-3.3155 -2.9375,-4.46875 1.58307,-0.97839 1.19124,-3.34001 -0.9375,-5.46875 -1.94485,-1.94485 -1.93792,-1.98884 2.875,-6.25 6.51309,-5.76639 10.39285,-13.55664 10.40625,-20.9375 0.01,-5.31438 -0.28542,-5.97159 -4.875,-11.34375 -8.66728,-10.14514 -23.14377,-19.73003 -31.625,-20.9375 -1.06662,-0.15185 -2.05786,-0.20795 -3.03125,-0.1875 l 0,-5e-5 z m 1.4375,4.375 c 1.0659,-0.0424 2.15314,0.32876 4.09375,1.0625 8.92683,3.37524 24.04164,15.26688 27.4375,21.59375 4.12896,7.69271 -0.25707,18.34849 -10.1875,24.78125 -5.75863,3.73033 -6.09658,3.82657 -6.40625,1.8125 -0.17972,-1.16888 0.10555,-2.65527 0.625,-3.3125 0.51944,-0.65723 1.72607,-3.58517 2.6875,-6.53125 1.69261,-5.18658 1.67517,-5.44267 -0.1875,-7.9375 -2.01379,-2.69726 -9.85914,-6.02369 -14.5625,-6.15625 -2.9448,-0.083 -3.84225,0.75222 -9.375,8.34375 -6.09058,8.35694 -8.81655,19.84521 -8.4375,35.59375 0.13866,5.76076 -0.1308,6.82031 -2.46875,9.3125 -1.45088,1.5466 -3.76807,3.2341 -5.125,3.75 -2.47353,0.94044 -8.09969,1.073 -11.84375,0.28125 -1.1,-0.23261 -2.98099,-0.61871 -4.1875,-0.875 -2.52804,-0.537 -7.27113,-4.75409 -9.75,-8.65625 -2.03885,-3.20949 -1.39843,-9.77055 1.625,-16.8125 3.25768,-7.58751 3.56822,-8.38559 4.84375,-12 2.20809,-6.25697 7.12256,-16 8.0625,-16 0.50419,0 0.90625,-0.76177 0.90625,-1.6875 0,-3.33544 19.95111,-21.06381 28.34375,-25.1875 1.79578,-0.88235 2.84035,-1.33261 3.90625,-1.375 z m -87.375,3.15625 c 0.68084,0.009 1.21452,0.10241 1.5625,0.28125 2.95138,1.51683 6.5625,4.95269 6.5625,6.25 0,0.60656 1.45147,2.68367 3.21875,4.59375 4.17526,4.51262 6.93826,12.29118 5.65625,15.96875 -0.51694,1.48288 -2.16766,3.59021 -3.65625,4.6875 -3.75416,2.76733 -10.15703,5.68672 -10.875,4.96875 -0.32762,-0.32762 -0.53015,-2.80832 -0.46875,-5.53125 0.20075,-8.91086 -6.594,-13.32952 -15.46875,-10.0625 -1.59457,0.587 -3.93883,2.38629 -5.21875,4 -2.07887,2.62102 -2.21808,3.31479 -1.1875,6.4375 0.63451,1.92258 1.9978,4.07928 3,4.78125 1.00221,0.70197 1.96305,2.61276 2.15625,4.25 0.29186,2.47317 -0.0234,3.0099 -1.9375,3.28125 -4.31048,0.61108 -5.14351,8.28305 -1.5,13.84375 1.32816,2.02704 1.20943,2.41201 -1.625,4.9375 -1.68818,1.50417 -3.09375,3.28692 -3.09375,3.96875 0,0.68182 -1.93115,2.38569 -4.3125,3.78125 -2.38135,1.39556 -4.914,3.23705 -5.625,4.09375 -3.03839,3.66104 -5.51872,1.28484 -4.5625,-4.375 0.39902,-2.36179 0.24867,-4.12649 -0.40625,-4.53125 -0.58881,-0.36391 -1.09375,-2.96526 -1.09375,-5.78125 0,-2.81599 -0.421,-6.49845 -0.9375,-8.1875 -2.23007,-7.29287 -4.08322,-21.31189 -3.15625,-23.75 1.11626,-2.93599 11.30237,-13.6186 15.59375,-16.34375 1.65,-1.04779 4.575,-3.11878 6.5,-4.59375 4.22929,-3.24055 16.10911,-7.03076 20.875,-6.96875 z m 93.375,26.21875 c 1.33956,0.0341 2.85361,0.80789 4.875,2.1875 3.91217,2.67008 3.93093,3.85858 0.25,11.28125 -2.65528,5.35441 -2.61845,5.83756 1.40625,13.65625 0.21234,0.4125 -0.46285,0.75 -1.53125,0.75 -1.0684,0 -4.00067,-1.8 -6.5,-4 -2.49933,-2.2 -5.04425,-4 -5.65625,-4 -0.612,0 -1.82588,-1.4744 -2.6875,-3.28125 -1.55057,-3.25156 -1.5072,-3.37293 2.78125,-9.96875 3.04987,-4.69084 4.82989,-6.68182 7.0625,-6.625 z m -10.78125,41.875 c 1.56647,-0.043 3.20531,0.28378 4.71875,1.09375 2.32542,1.24452 7.41266,6.77517 10.15625,11.03125 1.67052,2.59145 1.76663,2.98945 -0.3125,8.59375 l -7.40625,12.75 c -0.67903,0.72486 -1.40165,1.47318 -2.25,2.3125 -3.50175,3.46452 -6.375,6.74465 -6.375,7.28125 0,0.53659 1.125,1.41473 2.5,1.9375 1.99361,0.75797 2.5,1.64952 2.5,4.375 0,3.35084 2.04601,5.34739 4.125,4.0625 0.50426,-0.31164 1.09415,0.0276 1.3125,0.75 1.57229,5.20153 1.28036,5.14575 6.21875,1.375 2.55997,-1.95468 5.68552,-3.5625 6.96875,-3.5625 1.3852,0 2.99622,-1.01573 3.96875,-2.5 0.93243,-1.42307 2.61228,-2.5 3.875,-2.5 2.75373,0 3.81003,0.97133 2.625,2.40625 -0.49601,0.60061 -1.20833,2.78125 -1.59375,4.84375 -0.86172,4.6112 -0.0676,4.69126 7.5,0.875 3.29617,-1.66222 5.65271,-3.5281 5.875,-4.6875 0.36193,-1.88776 5.12817,-9.24177 8.125,-12.53125 0.825,-0.90557 2.9625,-2.40348 4.75,-3.3125 3.43661,-1.74768 4.23973,-4.53744 1.875,-6.5 -0.75529,-0.62683 -2.21779,-0.81458 -3.25,-0.4375 -3.46234,1.26486 -10.22568,6.32814 -10.8125,8.09375 -0.31951,0.96132 -2.42195,3.04655 -4.65625,4.625 -2.23429,1.57844 -4.43323,3.82844 -4.90625,5 -0.65517,1.6227 -0.8892,1.72568 -0.9375,0.4375 -0.0349,-0.93004 0.41042,-1.96744 0.96875,-2.3125 0.55833,-0.34507 1.68757,-2.28761 2.53125,-4.3125 1.80915,-4.34211 11.78452,-14.001 15.40625,-14.90625 1.39059,-0.34757 4.78125,-1.60184 7.53125,-2.8125 7.69925,-3.3895 14.72345,-4.64475 17.9375,-3.1875 2.39683,1.08673 2.64827,1.63619 2.21875,5.21875 -0.80146,6.68491 -2.53907,9.47532 -11.1875,18 -1.67764,1.65363 -3.34468,3.72709 -3.6875,4.625 -0.34281,0.8979 -2.56661,2.93894 -4.9375,4.53125 -2.37089,1.59231 -4.81846,3.91459 -5.4375,5.15625 -1.03391,2.07382 -6.98273,6.60798 -13.3125,10.125 -1.41776,0.78776 -4.7962,1.78772 -7.5,2.21875 -2.70378,0.43103 -5.32744,1.20244 -5.84375,1.71875 -0.51631,0.51631 -1.17578,4.91634 -1.46875,9.78125 -0.47172,7.83309 -1.04432,9.89804 -4.96875,18.0625 -4.10674,8.54376 -4.8603,9.46812 -10.125,12.625 -3.12459,1.87359 -7.375,3.9329 -9.4375,4.59375 -2.1966,0.70382 -3.75,1.84506 -3.75,2.75 0,1.25397 -0.26154,1.31439 -1.46875,0.3125 -1.84003,-1.52709 -4.53125,-0.61644 -4.53125,1.53125 0,1.18938 0.80723,1.51532 3.15625,1.28125 1.81918,-0.18127 3.32105,0.20924 3.5625,0.90625 0.56318,1.62576 -6.95772,9.00429 -13.71875,13.46875 -7.15016,4.72142 -27.51893,14.44893 -32,15.28125 -1.925,0.35756 -4.625,1.01692 -6,1.46875 -1.375,0.45182 -4.525,1.39144 -7,2.0625 -2.475,0.67107 -5.53811,1.62726 -6.8125,2.125 -1.27439,0.49775 -5.99939,0.91 -10.5,0.9375 -4.50061,0.0276 -10.96744,0.47679 -14.375,1 -3.40755,0.52321 -6.78255,1.11751 -7.5,1.3125 -0.71744,0.19499 -3.89634,0.0285 -7.0625,-0.375 -5.84077,-0.74435 -11.07324,-3.52098 -17.25,-9.125 -1.65,-1.497 -5.475,-4.55772 -8.5,-6.8125 -3.025,-2.25477 -9.94991,-8.49048 -15.40625,-13.84375 -7.967294,-7.8168 -10.7998,-11.39235 -14.375,-18.21875 -4.39264,-8.3872 -4.45443,-8.59623 -3.9375,-16.1875 0.3509,-5.153 1.28824,-9.19796 2.8125,-12.25 1.25164,-2.50615 2.52874,-4.55695 2.84375,-4.53125 0.31501,0.0257 1.49191,1.93817 2.625,4.25 1.55194,3.16639 2.72374,4.29289 4.75,4.53125 3.20284,0.37677 3.2453,0.62783 0.8125,7.96875 -3.33576,10.06562 -4.54577,21.11088 -2.625,24.21875 1.39486,2.25693 11.0617,5.77705 17.8125,6.5 4.92099,0.52699 6.6875,1.13312 6.6875,2.21875 0,1.58695 7.41011,9.82926 10.1875,11.34375 2.61682,1.42691 11.85115,-0.99481 16.03125,-4.21875 2.03025,-1.56585 4.73025,-2.867 6,-2.875 3.52713,-0.0234 5.21032,-1.36181 3.5,-2.78125 -1.58812,-1.31802 -6.98614,-0.10234 -9.59375,2.15625 -0.88672,0.76802 -4.26321,2.19021 -7.5,3.1875 -5.2403,1.61459 -6.1532,1.67469 -8.46875,0.375 -1.43025,-0.80278 -3.11196,-2.47041 -3.71875,-3.6875 -0.60678,-1.21709 -1.90733,-3.11497 -2.90625,-4.21875 -1.75787,-1.94249 -1.78132,-2.00048 0.0625,-2 1.04775,2.8e-4 4.15625,0.84876 6.90625,1.875 4.94534,1.8455 5.13665,1.8381 17.5,-0.40625 6.875,-1.24803 15.54217,-3.07974 19.25,-4.0625 l 6.75,-1.78125 2.90625,3.25 c 1.60673,1.79965 3.46323,4.58987 4.125,6.1875 1.35916,3.28131 3.43313,2.93131 2.40625,-0.40625 -0.3665,-1.19121 -2.02237,-4.15013 -3.65625,-6.59375 -2.7997,-4.18723 -2.87213,-4.51817 -1.1875,-5.75 0.98313,-0.71888 2.14404,-1.3125 2.5625,-1.3125 1.14589,0 6.84375,8.64183 6.84375,10.375 0,2.6907 1.9268,2.78236 2.59375,0.125 0.41763,-1.66396 0.12292,-3.17909 -0.84375,-4.28125 -0.82474,-0.94034 -2.34706,-3.35785 -3.375,-5.375 -1.89169,-3.71206 -10.99108,-10.84375 -13.84375,-10.84375 -2.49631,0 -1.72588,2.78253 1.15625,4.1875 3.84125,1.87253 3.87663,3.32628 0.125,5.625 -8.0239,4.91645 -41.85336,10.70446 -40.53125,6.9375 0.30396,-0.86603 2.37048,-1.14588 6.71875,-0.9375 5.34417,0.25611 6.62125,-0.0551 8.625,-1.9375 2.96493,-2.7854 4.0786,-8.22716 2.34375,-11.46875 -1.86598,-3.48662 -3.29152,-2.97974 -2.5625,0.90625 0.3424,1.82516 0.1133,4.77195 -0.5,6.53125 l -1.09375,3.1875 -6.3125,-0.65625 c -4.92,-0.50407 -8.17528,-0.13814 -14.59375,1.59375 -6.33403,1.70911 -9.5235,2.0628 -13.8125,1.53125 -13.091634,-1.62247 -15.14616,-4.46872 -12.625,-17.4375 1.7676,-9.09245 3.31204,-13.38604 10.125,-28.0625 2.4255,-5.225 4.44725,-9.95 4.46875,-10.5 0.0215,-0.55 1.37235,-2.56452 3,-4.46875 1.62765,-1.90422 2.9375,-4.06204 2.9375,-4.78125 0,-2.04628 -4.57818,-8.77754 -7.5625,-11.125 -3.45068,-2.71431 -5.66536,-2.68344 -8.90625,0.125 -2.11806,1.83544 -2.68673,3.33269 -3.03125,8.15625 -0.23228,3.25216 -0.94859,6.40216 -1.59375,7 -0.87639,0.81211 -1.05315,0.56079 -0.6875,-0.96875 0.26917,-1.12599 0.18789,-5.62599 -0.1875,-10 -0.65593,-7.643 -0.57763,-8.10303 2.1875,-12.1875 1.92707,-2.84654 3.61894,-4.253 5.09375,-4.25 2.80591,0.005 8.58598,3.45396 11.25,6.71875 2.86281,3.50841 6.06602,2.41473 7.40625,-2.5625 1.21567,-4.51466 0.84094,-6.76176 -1.8125,-11.125 l -2,-3.34375 2.875,-3.09375 c 1.5881,-1.70286 4.2499,-4.55625 5.90625,-6.34375 1.65635,-1.7875 3.34906,-3.25 3.75,-3.25 0.40094,0 1.87616,-1.04126 3.28125,-2.3125 1.4051,-1.27124 3.73545,-2.82307 5.1875,-3.4375 2.43175,-1.02897 2.87776,-0.80813 5.8125,2.84375 4.36278,5.42889 10.18712,9.12308 13.71875,8.71875 2.63239,-0.30138 2.83505,-0.62687 2.90625,-4.78125 l 0.0625,-4.5 7.53125,-0.28125 c 5.27539,-0.20717 9.32806,0.25639 13.625,1.59375 5.98001,1.86117 6.15365,1.86426 7.8125,0.0312 0.93324,-1.03121 3.3012,-2.32403 5.28125,-2.875 3.26382,-0.90819 3.77534,-0.763 5.4375,1.5 1.00837,1.37288 2.41322,2.5 3.125,2.5 0.71178,0 1.9014,0.74606 2.65625,1.65625 2.15239,2.59538 6.73962,4.08734 14.90625,4.84375 l 7.5625,0.6875 5.1875,-4.6875 c 2.86896,-2.57944 5.21875,-5.5215 5.21875,-6.53125 0,-2.93774 3.02251,-4.87409 6.46875,-4.96875 l 0,5e-5 z m -96.5625,30.3125 c -3.64394,0.0758 -5.74669,1.4812 -11.40625,6.09375 -2.75,2.24125 -5.15667,4.17835 -5.375,4.3125 -0.21834,0.13415 1.0472,3.16416 2.8125,6.75 1.7653,3.58583 3.51839,6.53125 3.90625,6.53125 0.38786,0 2.3757,-1.16147 4.4375,-2.5625 3.30138,-2.24335 4.86845,-2.54672 13,-2.65625 6.47161,-0.0872 10.66294,0.39162 14,1.59375 3.28906,1.18483 5.28538,1.41224 6.46875,0.75 1.10781,-0.61997 2.39433,-0.59614 3.625,0.0625 3.89175,2.0828 5.0448,-4.54118 1.375,-7.875 -4.63896,-4.21425 -22.03409,-11.98722 -28.5,-12.71875 -1.75296,-0.19833 -3.1291,-0.30652 -4.34375,-0.28125 z M 106.9375,344.8125 c 2.67673,-0.0128 6.375,1.97178 6.375,3.875 0,0.81088 -0.3375,1.37735 -0.75,1.28125 -0.4125,-0.0961 -2.6625,-0.35196 -5,-0.5625 -4.64482,-0.41835 -5.69587,-2.40583 -2.25,-4.25 0.45056,-0.24113 1.00729,-0.3408 1.625,-0.34375 z m 106.96875,3.34375 c -2.16741,0 -2.02812,0.57156 1.15625,4.5625 3.05614,3.83022 4.26855,4.30813 4.21875,1.6875 -0.0447,-2.34958 -3.39827,-6.25 -5.375,-6.25 z M 224,350.625 c -0.19826,-0.007 -0.33571,0.24343 -0.4375,0.71875 -0.19994,0.93368 0.13763,2.63702 0.75,3.78125 -5.08891,8.36585 -12.21877,19.25205 2.0625,1.5 0.40518,-0.50365 0.23564,-1.9255 -0.75,-3.78125 -0.79148,-1.49018 -1.29457,-2.20764 -1.625,-2.21875 z m -66.21875,0.8125 c -0.73705,0.0121 -1.5391,0.1137 -2.46875,0.25 -5.86148,0.85935 -6.64235,1.61718 -7.9375,7.65625 -0.59648,2.7813 -1.70118,6.24221 -2.46875,7.6875 -1.75222,3.29934 -3.26582,7.68276 -4.09375,11.875 -0.35237,1.78423 -1.35952,3.64414 -2.21875,4.125 -2.54251,1.42285 -0.45428,3.125 3.8125,3.125 3.25829,0 4.13046,0.4167 4.875,2.375 0.59364,1.5614 2.38941,2.89864 5.21875,3.875 7.42674,2.56282 12.90449,2.18745 17.40625,-1.21875 2.16048,-1.6347 4.69375,-2.9847 5.65625,-3 0.9625,-0.0153 1.75,-0.46095 1.75,-0.96875 0,-0.50781 1.21279,-2.34116 2.6875,-4.09375 2.49747,-2.96808 3.0255,-3.16671 7.6875,-2.71875 3.50229,0.33653 5.5125,1.13534 6.71875,2.625 2.11689,2.61424 2.90625,2.68851 2.90625,0.28125 0,-2.67632 -2.84684,-4.86738 -8.25,-6.3125 -2.6054,-0.69684 -4.75,-1.589 -4.75,-2 0,-1.08787 6.5277,-2.14379 10.0625,-1.625 2.36875,0.34766 2.9535,0.11057 2.71875,-1.125 -0.23506,-1.23717 -2.04994,-1.70294 -8.375,-2.09375 -4.66355,-0.28815 -8.77592,-1.08984 -9.71875,-1.875 -2.45918,-2.04791 -5.90964,-7.96393 -5.25,-9.03125 0.72068,-1.16608 -2.28326,-4.30711 -3.4375,-3.59375 -0.46397,0.28675 -3.00206,-0.64443 -5.65625,-2.0625 -2.99087,-1.59797 -4.66384,-2.19268 -6.875,-2.15625 z m -49.5625,1.21875 c 4.66269,1.17026 5.09162,2.14811 3.34375,7.3125 -0.87373,2.5816 -2.51139,6.15681 -3.65625,7.9375 -1.62778,2.53183 -2.78589,3.24 -5.28125,3.25 2.74692,-3.97893 3.03977,-6.02405 4.50137,-13.0625 0.32371,-2.71029 -2.26711,-6.1625 1.09238,-5.4375 z m 196.75,6.46875 c 1.99208,-0.0521 4.41187,0.47727 8.34375,1.46875 3.575,0.90149 7.625,1.88957 9,2.21875 1.375,0.32918 4.68679,1.98933 7.34375,3.6875 4.44414,2.84044 4.77893,3.33828 4.1875,6.125 -0.35359,1.66606 -0.89927,5.40887 -1.21875,8.3125 -0.80907,7.35322 -2.3125,7.57542 -2.3125,0.34375 0,-6.37212 -1.52243,-12.04984 -2.84375,-10.53125 -1.10162,1.26608 -3.1507,8.64637 -3.1875,11.53125 -0.0268,2.09821 -0.13573,2.1624 -1.03125,0.625 -0.69091,-1.1861 -0.69804,-2.94068 0,-5.46875 0.67143,-2.43169 0.70264,-4.07861 0.0625,-4.71875 -2.31574,-2.31574 -3.31413,1.6807 -3.71875,14.90625 -0.35405,11.57282 -0.192,13.53125 1.09375,13.53125 1.41007,0 2.73889,-2.57025 3.125,-6 0.41278,-3.66666 2.73929,-13.10446 3.125,-12.71875 0.23472,0.23471 0.44115,5.42859 0.46875,11.5625 0.0276,6.1339 0.3085,11.15625 0.625,11.15625 1.59141,0 3.2527,-3.99651 3.3125,-8 0.037,-2.475 0.7126,-5.625 1.53125,-7 1.3871,-2.32978 1.46359,-2.02337 0.9375,4.5 -0.31049,3.85 -0.79297,8.41164 -1.0625,10.15625 -0.52747,3.41435 0.72569,5.10812 2.3125,3.09375 0.53681,-0.68144 1.28147,-4.07996 1.625,-7.53125 0.34352,-3.45129 1.30178,-7.62889 2.15625,-9.28125 0.85446,-1.65236 1.30645,-3.41041 1,-3.90625 -0.30644,-0.49584 -0.11317,-1.15967 0.4375,-1.5 0.65353,-0.40391 0.82091,2.23872 0.46875,7.65625 -1.256,19.3219 -1.29768,24.93256 -0.1875,24.5625 0.70426,-0.23475 1.22506,-4.86844 1.40625,-12.8125 0.15609,-6.84342 0.723,-13.97795 1.28125,-15.84375 0.55827,-1.86581 0.76692,-3.76755 0.46875,-4.25 -0.69398,-1.12287 1.50247,-7.84375 2.5625,-7.84375 0.44,0 1.36071,0.68565 2.0625,1.53125 0.97182,1.17097 1.14043,5.18359 0.6875,16.78125 -0.32707,8.37506 -0.88379,15.98317 -1.25,16.9375 -0.46173,1.20326 -0.17688,1.75 0.9375,1.75 1.03919,0 1.68654,-0.97166 1.8125,-2.75 0.10714,-1.5125 0.28893,-3.875 0.40625,-5.25 0.11732,-1.375 0.2535,-7 0.3125,-12.5 0.12168,-11.35016 0.99021,-14.00908 3.71875,-11.28125 1.4384,1.43802 1.77181,4.00192 1.96875,15.5 0.12979,7.57733 0.49532,13.89375 0.8125,14.03125 1.95123,0.84586 2.21444,-1.00497 1.78125,-12.25 -0.2676,-6.94664 -0.0856,-12.50002 0.40625,-12.5 0.48676,2e-5 2.18875,1.62915 3.78125,3.625 2.58286,3.23707 2.70532,3.73058 1.21875,4.5625 -0.91653,0.51294 -1.36742,1.4055 -1,2 0.36743,0.59451 0.61935,5.08029 0.53125,9.9375 -0.13762,7.58736 0.0498,8.72729 1.375,8.21875 1.26047,-0.48368 1.4731,-2.10297 1.1875,-8.9375 -0.39377,-9.42281 0.37612,-12.02452 2.65625,-8.90625 1.18271,1.61745 1.25558,2.54939 0.28125,5 -1.18399,2.97794 -0.74667,11.72208 0.65625,13.125 0.76405,0.76404 4.6875,-2.4057 4.6875,-3.78125 0,-0.46475 -0.6296,-0.84375 -1.40625,-0.84375 -1.46415,0 -3.33037,-7.57589 -2.15625,-8.75 1.44103,-1.44103 4.07507,3.01788 4.1875,7.09375 0.13658,4.95175 1.83048,8.65625 3.9375,8.65625 1.91695,0 1.8415,-1.99156 -0.15625,-4.84375 -0.8811,-1.25795 -1.35803,-2.51696 -1.0625,-2.8125 0.75512,-0.75511 4.68121,2.13014 6.03125,4.4375 3.3556,5.73507 9.07279,13.21875 10.09375,13.21875 0.64526,0 1.95911,1.66708 2.9375,3.71875 0.97839,2.0517 2.68903,4.6392 3.78125,5.75 5.22906,5.31801 12.72172,19.43326 13.53125,25.46875 0.68877,5.13521 -1.92554,11.0427 -4.90625,11.0625 -3.43486,0.0229 -4.44848,1.088 -5.25,5.5 -0.61835,3.40373 -2.49477,5.75482 -12.71875,15.8125 -6.60826,6.50078 -12.58282,11.59978 -13.25,11.34375 -0.66719,-0.25602 -1.76459,-2.41775 -2.46875,-4.8125 -0.70416,-2.39475 -2.61871,-6.94605 -4.21875,-10.125 -3.20725,-6.37211 -3.95285,-10.84287 -1.46875,-8.78125 1.96262,1.62882 10.13546,0.39458 14.40625,-2.1875 4.42416,-2.67481 2.31155,-4.05174 -3.21875,-2.09375 -5.35155,1.89475 -13.30722,1.86976 -22.53125,-0.0625 -4.08783,-0.85633 -7.62435,-1.37565 -7.84375,-1.15625 -0.42658,0.42657 -6.76084,-3.51518 -9.25,-5.75 -2.18138,-1.95849 -10.96049,-7.6865 -11.78125,-7.6875 -0.77867,-10e-4 -4.15054,-2.75907 -11.875,-9.6875 -4.95442,-4.44386 -5.09687,-4.73883 -3.65625,-6.9375 1.64498,-2.51056 0.97097,-6.375 -1.09375,-6.375 -2.398,0 -8.46147,5.51119 -9.09375,8.25 -0.34772,1.5062 -1.05481,2.96748 -1.5625,3.28125 -0.50768,0.31377 -0.9375,2.03551 -0.9375,3.8125 0,2.75215 -1.66003,10.57993 -3.59375,16.90625 -1.00212,3.27859 1.57958,1.75742 3.34375,-1.96875 1.33453,-2.81871 2.53736,-3.87426 5,-4.375 1.78411,-0.36276 3.86351,-1.18052 4.625,-1.8125 1.71647,-1.42454 6.0906,0.0241 6.96875,2.3125 0.77396,2.01702 2.62012,2.04657 4.09375,0.0312 1.03625,-1.41714 1.45994,-1.43363 4.125,-0.0625 1.62772,0.83743 3.6125,1.76271 4.4375,2.0625 0.825,0.29979 4.3245,2.3063 7.75,4.46875 3.42551,2.16245 7.25051,4.24182 8.5,4.625 1.2495,0.38318 2.80534,1.15746 3.46875,1.6875 0.6634,0.53003 1.6759,0.66731 2.25,0.3125 0.57409,-0.35481 1.03125,-0.22162 1.03125,0.3125 0,0.53411 1.9125,1.30428 4.25,1.6875 6.41178,1.05118 6.44816,1.08404 14.875,19.96875 2.35876,5.28603 3.72094,11.58434 5.53125,25.5 1.87867,14.44118 1.82177,12.71543 1.03125,24.5 -0.92056,13.72317 -2.54001,18.79724 -6.28125,19.65625 -6.17035,1.41676 -15.13847,2.84375 -17.84375,2.84375 -3.08255,0 -3.07379,0.0119 -15.59375,12.40625 -4.7063,4.65908 -9.70047,8.74406 -11.09375,9.09375 -1.66512,0.41792 -2.98994,1.8068 -3.875,4.0625 -1.47,3.74646 -2.44877,4.2887 -3.375,1.875 -0.32996,-0.85985 -1.09612,-1.27174 -1.6875,-0.90625 -0.59134,0.36549 -0.81972,1.27949 -0.53125,2.03125 0.28848,0.75175 0.13525,1.6102 -0.34375,1.90625 -0.47901,0.29604 -1.05431,-0.007 -1.28125,-0.6875 -0.24662,-0.73985 -1.7181,0.23007 -3.65625,2.4375 -1.78349,2.03128 -4.46345,4.34867 -5.9375,5.125 -1.47406,0.77634 -5.1625,2.79019 -8.1875,4.5 -3.025,1.7098 -6.52608,3.115 -7.78125,3.125 -1.25516,0.01 -3.80543,0.68237 -5.6875,1.46875 -3.2595,1.36191 -3.62677,1.27336 -7.71875,-1.5 -2.36276,-1.60137 -4.68974,-2.89625 -5.15625,-2.90625 -0.4665,-0.01 -0.53195,2.60673 -0.15625,5.84375 0.52493,4.52287 0.29159,6.62526 -0.96875,9.0625 -2.12342,4.10624 -10.03616,9.2049 -13.09375,8.4375 -1.56629,-0.39311 -2.56603,0.003 -3.25,1.28125 -1.47664,2.75912 -18.44299,7.03995 -21.1875,5.34375 -0.61007,-0.37705 -3.42432,-0.75225 -6.28125,-0.84375 -5.41432,-0.17348 -20.76933,-4.49687 -24.1875,-6.8125 -1.08487,-0.73495 -2.65987,-1.33975 -3.5,-1.34375 -0.84012,-0.004 -4.69692,-3.13902 -8.59375,-6.9375 -6.24108,-6.08356 -7.67068,-6.96727 -12,-7.59375 -6.85621,-0.99213 -10.20475,-3.23597 -12.625,-8.46875 -1.14549,-2.47662 -2.52809,-5.5172 -3.09375,-6.75 -0.72562,-1.58141 -0.69651,-2.9782 0.125,-4.78125 1.52206,-3.34055 1.51528,-3.46875 -0.71875,-3.46875 -2.06593,0 -4.1013,4.3832 -4.125,8.90625 -0.0193,3.67402 -1.06485,7.09375 -2.15625,7.09375 -0.50985,0 -2.14212,-1.125 -3.625,-2.5 -1.48287,-1.375 -3.01938,-2.5 -3.4375,-2.5 -1.83729,0 -0.524,3.87228 2.21875,6.5 2.57409,2.46613 3,3.6056 3,8.03125 0,10.09124 -6.23528,11.03071 -17.25,2.59375 -4.66608,-3.57409 -6.55593,-5.79116 -7.5,-8.71875 -2.43855,-7.56201 -6.69587,-14.40625 -8.9375,-14.40625 -0.23331,0 -0.42706,-0.0134 -0.59375,0 l -0.8125,-1.8125 1.03125,-1.21875 c 0.0223,0.0117 0.04,0.0192 0.0625,0.0312 1.78699,0.95637 2,0.75583 2,-1.84375 0,-1.6002 -0.64979,-4.80382 -1.46875,-7.125 -1.01247,-2.86965 -1.44659,-7.6671 -1.34375,-14.96875 0.0832,-5.90612 -0.21293,-11.31395 -0.65625,-12.03125 -1.90381,-3.08043 -0.14922,-27.50403 2.65625,-37.03125 0.56686,-1.925 2.72927,-8 4.8125,-13.5 2.08323,-5.5 4.5354,-12.13658 5.46875,-14.75 0.93335,-2.61343 2.49349,-5.31343 3.46875,-6 0.97525,-0.68658 2.10903,-2.2625 2.5,-3.5 0.39096,-1.2375 1.07716,-2.25 1.53125,-2.25 0.45409,0 1.11667,-0.73874 1.46875,-1.65625 0.4209,-1.09686 -0.44449,-2.7855 -2.5,-4.90625 -3.11323,-3.21203 -3.10057,-3.24124 -1.9375,-8.84375 2.19918,-10.59338 9.44946,-14.4346 28.75,-15.15625 6.1875,-0.23135 11.25,-0.13468 11.25,0.1875 0,0.32217 -0.64687,1.98563 -1.4375,3.71875 -3.32026,7.27818 -4.43958,10.79768 -3.90625,12.1875 0.95017,2.47613 2.34375,1.63246 2.34375,-1.40625 0,-2.98871 6.75523,-16.20135 8.5,-16.625 0.55,-0.13355 3.925,-1.18015 7.5,-2.34375 3.575,-1.16361 8.525,-2.43768 11,-2.8125 2.475,-0.37482 6.49734,-1.68725 8.90625,-2.90625 4.18527,-2.11792 4.65168,-2.1306 10.5,-0.75 9.11288,2.15124 15.86263,1.18183 26.78125,-3.8125 11.14212,-5.09656 10.47476,-4.65024 9.0625,-6.0625 -0.85793,-0.85793 -2.21879,-0.60903 -5.4375,0.9375 -13.16556,6.3258 -20.21797,8.048 -25.90625,6.34375 L 222,443.96875 l 2.90625,-2.375 c 1.59888,-1.30708 4.93387,-3.34507 7.40625,-4.53125 4.89437,-2.34817 13.90035,-8.93634 13.96875,-10.21875 0.0459,-0.86024 11.0942,-11.83354 19.6875,-19.5625 6.79318,-6.10989 11.24692,-15.26027 12.59375,-25.9375 0.53245,-4.22107 1.11061,-8.60042 1.3125,-9.71875 0.26979,-1.49438 1.91244,-2.50572 6.15625,-3.8125 3.17587,-0.97793 8.18359,-3.39136 11.125,-5.34375 3.41775,-2.26857 5.25126,-3.2768 7.8125,-3.34375 z m -137.34375,2.625 5.28125,5.9375 c 5.89327,6.64192 6.70016,8.88557 4.8125,13.375 -0.7133,1.69644 -1.6547,3.07095 -2.09375,3.03125 -1.35975,-0.12284 -12.77625,-3.16105 -13.15625,-3.5 -0.1975,-0.17617 0.56704,-1.61397 1.6875,-3.1875 1.22716,-1.7234 2.31398,-5.39605 2.75,-9.25 L 167.625,361.75 z m -7.34375,1.53125 c 1.01448,-0.0909 1.67551,1.31256 1.28125,3.375 -0.26691,1.39625 -0.82434,2.73693 -1.25,3 -1.17966,0.72906 -2.23081,-4.64419 -1.125,-5.75 0.39,-0.39 0.75559,-0.5947 1.09375,-0.625 z m -9.59375,1.0625 c 0.0682,-0.0251 0.16692,0.0107 0.25,0.0937 0.33225,0.33229 0.35137,1.18437 0.0625,1.90625 -0.31922,0.79773 -0.54575,0.5712 -0.59375,-0.59375 -0.0326,-0.79062 0.0766,-1.33091 0.28125,-1.40625 l 0,5e-5 z m 188.375,7.8125 c 1.29909,0 1.43981,0.91303 0.875,5.71875 -0.98115,8.348 -2.5614,8.94126 -2.5,0.9375 0.0409,-5.33193 0.38429,-6.65625 1.625,-6.65625 z M 95.21875,373.4375 c 0.259254,0.005 0.559941,0.0656 0.875,0.1875 0.95786,0.37058 2.956246,0.91352 4.46875,1.21875 3.27038,0.65999 3.43724,1.62526 0.75,4.3125 -2.666564,2.66656 -4.58804,2.51341 -6.5625,-0.5 -1.728947,-2.63872 -1.346031,-5.25639 0.46875,-5.21875 z m 220.09375,0.71875 c -0.60662,0 -0.98805,4.2288 -0.96875,10.75 0.0292,9.8582 0.15916,10.58408 1.5625,8.75 0.96119,-1.25623 1.32181,-3.06917 0.96875,-4.875 -0.30915,-1.58125 -0.5625,-5.51875 -0.5625,-8.75 0,-3.25 -0.44681,-5.875 -1,-5.875 z m -6,3 c -0.93556,0.003 -2,1.59853 -2,3.375 0,3.42401 -1.2191,3.96975 -3.15625,1.40625 -1.36773,-1.80997 -1.96994,-2.02691 -2.9375,-1.0625 -1.92533,1.91907 0.51777,6.61025 3.03125,5.8125 1.04926,-0.33302 2.20875,-0.13487 2.5625,0.4375 0.35375,0.57238 1.50696,1.03125 2.5625,1.03125 1.6983,0 1.84954,-0.59527 1.46875,-5.125 -0.23667,-2.81534 -0.64152,-5.32902 -0.90625,-5.59375 -0.18719,-0.18719 -0.4091,-0.28196 -0.625,-0.28125 z M 152.96875,384.25 c 2.6352,-0.0616 6.48386,0.3406 11.25,1.25 6.04627,1.15365 6.31133,1.31367 4.6875,2.9375 -2.57955,2.57955 -13.02171,2.35512 -17.5,-0.375 -3.83522,-2.33808 -2.82949,-3.70976 1.5625,-3.8125 z m 116.15625,1.1875 c -0.0571,-0.002 -0.12635,0.0144 -0.1875,0.0312 -1.0599,0.29184 -2.60004,3.3323 -2.5625,5.625 0.0397,2.4239 0.14167,2.3775 1.90625,-0.9375 1.02456,-1.92478 1.58782,-3.91021 1.28125,-4.40625 -0.12419,-0.20096 -0.26613,-0.30567 -0.4375,-0.3125 l 0,5e-5 z M 265,395 c -0.54273,-0.01 -1.61889,0.68789 -3.1875,2.375 -1.91012,2.05443 -3.5,4.19193 -3.5,4.75 0,1.87889 1.83143,1.03464 4.4375,-2.0625 2.54154,-3.02046 3.15455,-5.04642 2.25,-5.0625 z m -8.78125,8.96875 c -3.38023,-0.0479 -7.40097,1.14365 -10.875,3.28125 -2.6033,1.60182 -5.47333,2.90625 -6.375,2.90625 -1.63463,0 -2.23412,2.07838 -0.96875,3.34375 1.26539,1.2654 3.24024,0.65676 8.84375,-2.71875 3.15144,-1.89841 6.43674,-3.17613 7.46875,-2.90625 1.17764,0.30796 2.25195,-0.28565 2.96875,-1.625 0.61645,-1.15183 0.7756,-2.1318 0.34375,-2.1875 -0.45368,-0.0585 -0.92336,-0.0869 -1.40625,-0.0937 l 0,-5e-5 z m 14.40625,25.4375 c -0.22024,0.0454 -0.41719,0.54989 -0.71875,1.5 -0.36143,1.13878 -1.32093,2.31646 -2.125,2.625 -0.80406,0.30855 -1.46875,1.02648 -1.46875,1.59375 0,1.69028 2.56521,1.1626 4.4375,-0.90625 1.27297,-1.40661 1.48951,-2.39067 0.78125,-3.65625 -0.44549,-0.79605 -0.68601,-1.20167 -0.90625,-1.15625 z m 34.75,6.625 c -1.30297,0.0775 -2.77241,0.49537 -3.65625,1.21875 -0.6006,0.49156 -1.33095,0.60655 -1.65625,0.28125 -0.3253,-0.3253 -1.11831,-0.26541 -1.75,0.125 -0.77387,0.47828 -0.22069,1.68668 1.6875,3.6875 l 2.8125,2.96875 0.3125,-2.5 c 0.20882,-1.68848 1.13587,-2.6651 2.84375,-3.09375 1.38253,-0.34699 2.32144,-1.17654 2.09375,-1.84375 -0.22438,-0.65748 -1.38453,-0.92122 -2.6875,-0.84375 z m 2.375,17.6875 c 0.13629,0.0155 0.30397,0.33586 0.5625,0.9375 0.47269,1.1 0.8988,2.7875 0.9375,3.75 0.0387,0.9625 -0.3875,1.75 -0.9375,1.75 -0.55,0 -0.94495,-1.6875 -0.90625,-3.75 0.0352,-1.88013 0.1166,-2.71338 0.34375,-2.6875 z m 85.21875,14.90625 c -1.22416,0.3239 -1.32141,8.58401 0.0937,11.53125 0.40823,0.85019 0.87992,-1.06457 1.0625,-4.40625 0.17782,-3.25479 -0.16799,-6.35549 -0.75,-6.9375 -0.15062,-0.15062 -0.27961,-0.22101 -0.40625,-0.1875 l 5e-5,0 z m -232.15625,8.59375 c -1.65,0.008 -4.125,0.65148 -5.5,1.4375 -1.375,0.78602 -3.7375,1.44925 -5.25,1.46875 -1.76203,0.0227 -2.75,0.57014 -2.75,1.53125 0,2.39768 4.42217,1.80067 10.75,-1.46875 5.19983,-2.68662 5.45571,-2.98165 2.75,-2.96875 z m 20.375,8.9375 c -0.50056,0.0163 -0.875,0.27963 -0.875,0.875 0,0.486 1.85627,2.57534 4.125,4.625 6.64517,6.00351 16.30914,9.62495 35.875,13.4375 12.57975,2.45123 17.49945,2.45823 30,0.0312 10.16091,-1.97273 21,-6.07667 21,-7.9375 0,-1.79057 -2.11174,-2.17553 -4.28125,-0.78125 -4.39495,2.8245 -15.56465,5.68354 -28.25,7.25 C 225.14976,505.33954 188.24036,494.78989 184,488 c -0.74249,-1.18891 -1.97823,-1.87089 -2.8125,-1.84375 z m 96.125,4 c -0.55,0 -1,0.675 -1,1.5 0,0.825 0.45,1.5 1,1.5 0.55,0 1,-0.675 1,-1.5 0,-0.825 -0.45,-1.5 -1,-1.5 z m 0.5625,21 c -0.30418,0 -0.5625,0.62309 -0.5625,1.375 0,0.75192 1.88487,2.6012 4.1875,4.125 4.71952,3.12323 16.8125,14.98922 16.8125,16.5 0,0.54255 0.675,1 1.5,1 2.04534,0 1.88861,-1.25892 -0.5625,-4.375 -4.69388,-5.9673 -19.22505,-18.625 -21.375,-18.625 z m 26.25,25.125 c -0.17216,10e-4 -0.31889,0.0689 -0.4375,0.1875 -0.37639,0.37639 0.15077,1.60442 1.1875,2.75 1.19275,1.31798 2.03342,1.64973 2.28125,0.90625 0.42096,-1.2629 -1.82611,-3.85089 -3.03125,-3.84375 z m 7.6875,10.28125 c -0.15186,0.0797 0.0945,0.81146 0.53125,2.09375 0.56204,1.65 1.52466,4.0125 2.15625,5.25 1.30028,2.54771 2.38202,2.87367 3.125,0.9375 0.27884,-0.72666 -1.03555,-3.08916 -2.90625,-5.25 -1.86917,-2.15908 -2.711,-3.13371 -2.90625,-3.03125 z m -146.625,26.03125 c -1.74462,-0.0611 -3.46109,0.37681 -4.6875,1.34375 -2.08687,1.64536 -2.1645,1.98232 -0.75,3.15625 1.05554,0.87602 1.5625,0.93841 1.5625,0.1875 0,-1.71486 5.1232,-1.33692 7.1875,0.53125 2.18723,1.97942 2.39848,7.18171 0.40625,9.90625 -1.95013,2.66701 -3.22385,0.9907 -1.90625,-2.5 0.59322,-1.57164 0.70202,-3.45611 0.25,-4.1875 -0.58047,-0.9392 -1.40994,-0.005 -2.84375,3.15625 -2.50586,5.52434 -2.61055,7.68888 -0.34375,8.28125 4.63206,1.21049 6.67665,-0.23718 8.15625,-5.78125 1.16749,-4.37461 0.0597,-10.48939 -2.25,-12.40625 -1.27044,-1.05437 -3.03663,-1.62641 -4.78125,-1.6875 z m 85,76.5625 c 0.0501,0 0.11571,0.0337 0.1875,0.0937 l -0.59375,-0.0312 c 0.11075,-0.0409 0.24788,-0.0625 0.40625,-0.0625 z M 228.6875,786.5 c 0.33843,0.55577 0.61335,1.09092 0.78125,1.53125 0.8571,2.24787 1.00319,2.29958 2.75,0.71875 3.53617,-3.20019 3.42946,1.1317 -0.25,9.3125 -1.88005,4.18006 -3.97324,9.45597 -4.65625,11.75 -0.683,2.29403 -2.22824,5.89403 -3.40625,8 -1.97815,3.53639 -2.52319,3.86629 -7.09375,4.15625 -2.72183,0.17268 -5.49271,0.76181 -6.15625,1.3125 -1.25272,1.03967 -20.62816,1.42054 -22.21875,0.4375 -0.49709,-0.30722 -2.40407,0.0626 -4.25,0.8125 -8.13937,3.30659 -7.53497,-1.7832 2.125,-17.875 1.65084,-2.75 3.47144,-6.125 4.0625,-7.5 1.67041,-3.88589 5.0677,-7 7.625,-7 2.22801,0 2.78187,-0.88816 2.375,-3.84375 -0.26206,-1.9037 2.08635,-0.92761 3.375,1.40625 1.69009,3.06091 2.65212,3.4055 9.5625,3.3125 8.53701,-0.1149 10.32474,-0.63359 9.53125,-2.71875 -0.50624,-1.33031 -0.38435,-1.40819 0.625,-0.40625 2.85436,2.83341 3.57581,0.55191 2.25,-2.625 L 228.6875,786.5 z m -20.65625,2.15625 0.28125,0 c -0.0874,0.0336 -0.18119,0.0261 -0.28125,0 z m 127.9375,10.875 c 0.62542,-0.0124 1.21498,0.0761 1.78125,0.25 1.13827,0.34959 4.42265,2.60743 7.28125,5.03125 5.0637,4.29353 5.20811,4.34482 6.3125,2.28125 1.21895,-2.27763 2.22381,-1.9357 2.5625,0.84375 0.11592,0.9513 0.79317,3.14037 1.5,4.875 1.08816,2.67042 1.01873,3.96282 -0.40625,8.375 -0.92562,2.86603 -1.6875,7.1959 -1.6875,9.625 0,2.68612 -0.48976,4.54422 -1.25,4.75 -0.6875,0.18609 -3.95,0.8948 -7.25,1.59375 -11.10253,2.35158 -21.46498,1.9475 -28.40625,-1.125 -3.29401,-1.45807 -3.99607,-4.46036 -2.15625,-9.09375 0.50166,-1.26338 1.92525,-4.98125 3.1875,-8.28125 4.0191,-10.50743 12.48557,-19.00507 18.53125,-19.125 z"
       id="path3245"
       sodipodi:nodetypes="csssssssssssssssssssssssssssssssscccccsscccssssssssssssssssssssssssssssssssssssssssssssscccssssssssssssssssssssssssssssscccssssssssssssssssssssssssssssssssssssssssssssssssssssssssssssssssssssssssssssssssssscccssssssssssssssssssssccsssssssssssssssssssssssssccssssssssccssccsssssssssssssssssssssssssssssssssssssssssssssssssssssssssssssssssssssssssssssscccssssssssssssssssscccssssssssssssssssscccsssssscccsssssscccscccsssssssssssccssssccssccscssccssssssssssssssssssssssssccssccccssssssssssssssssssssssssssssssssssssssssssssssssssssssssssssssssssssssssssssssssssssssssssssssssssssssssssssssssssssssssssssssssssssssssssssscccssssssssssssssssssssssssssscccssssssscccsssscccsssccssscccssccssssccssssccssssssssccsssccsssscccsssccssssssscccsssssccssscccssccssssccssscccssssccssssssssccsssccsssssccsssccssssccsssssssssssccccccsssssssssssssssssccccccssssssssssssc" />
    <path
       id="path4127"
       style="fill:#333333"
       d="m 359.75,814 c -0.26421,0.28171 -0.50281,0.56374 -0.71875,0.875 0.21418,-0.30872 0.4567,-0.59614 0.71875,-0.875 z M 197.21875,789.9375 c -0.0167,0.0291 0.0104,0.19732 0.0625,0.8125 -0.006,-0.12037 0.0494,-0.47963 0.15625,-0.78125 -0.11102,0.16189 -0.19647,-0.0701 -0.21875,-0.0312 z m 138.0625,-1.625 c 10e-6,2e-5 -0.48264,0.23069 -0.9375,0.4375 l 1.09375,0 c -0.0145,-0.0488 -0.1563,-0.43762 -0.15625,-0.4375 z M 332.25,788.09375 c -0.26089,0.49803 -0.18751,0.24117 -0.25,0.65625 l 1.28125,0 c -0.4266,-0.27777 -1.03126,-0.65623 -1.03125,-0.65625 z m -74.96875,-74.53125 -9.5,1.0625 c 0.0864,0.33065 0.1316,0.64771 0.15625,0.90625 0.0762,0.79956 0.0237,1.58084 -0.0937,2.40625 -0.23604,1.65927 -0.74935,3.68286 -1.53125,6.28125 -2.38297,7.91904 -4.1925,13.65007 -5.53125,17.53125 -0.66934,1.94049 -1.20461,3.41701 -1.6875,4.53125 -0.23877,0.55094 -0.46037,1.02457 -0.71875,1.46875 -0.0802,0.13794 -0.48219,0.49101 -0.71875,0.78125 -0.0358,0.0586 -0.11066,0.22718 -0.125,0.25 -0.0204,0.0734 -0.0937,0.35893 -0.0937,0.4375 0,1.73157 -0.74649,2.96065 -1.40625,4.1875 -0.73255,1.36221 -1.70513,2.87147 -2.78125,4.28125 -1.84758,2.42047 -4.12597,5.87666 -4.59375,6.78125 -2.7143,5.24887 -8.39662,10.65929 -13.9375,13.4375 -2.45072,1.22881 -6.17832,3.10692 -8.21875,4.15625 -3.32179,1.70832 -6.32907,2.11701 -10.78125,1.59375 l -1.84375,-0.21875 0.0312,2.0625 c 1.3e-4,0.0131 -1.1e-4,0.0182 0,0.0312 0.008,0.91617 -0.0433,1.52321 -0.0937,2.1875 l 2.84375,1.59375 c 0.19133,-0.0678 0.40319,-0.0719 0.65625,-0.125 -0.0115,-0.16601 -0.002,-0.22149 -0.0312,-0.4375 -0.15584,-1.13206 0.049,-2.89796 1.5625,-3.9375 1.40502,-0.96502 2.98051,-0.64056 3.84375,-0.28125 1.63772,0.68169 2.9046,2.01197 3.8125,3.65625 0.39008,0.70646 0.63787,1.09343 0.75,1.21875 0.11213,0.12532 0.04,0.1132 0.34375,0.21875 0.37127,0.12901 2.26471,0.3269 5.65625,0.28125 3.47696,-0.0468 5.13221,-0.24818 6.1875,-0.40625 -0.003,-0.0622 -2e-4,-0.0937 0,-0.15625 0.002,-0.49189 0.21,-1.93409 1.46875,-2.75 1.12127,-0.72679 2.32682,-0.44999 2.8125,-0.28125 -0.20054,-0.85858 0.36994,-1.82399 1.21875,-2.0625 l 2.96875,-0.78125 0.4375,1.6875 0.0937,0.40625 c 0.0431,-0.0676 6.3385,-9.91112 8.78125,-15.21875 8.39403,-18.23864 20.0625,-56.78125 20.0625,-56.78125 z m 97.6875,-2.25 c 0.28226,0.32782 0.45093,0.75429 0.4375,1.1875 l -0.4375,10.90625 c -0.1207,3.05726 -0.30868,5.96447 -0.53125,8.25 -0.11136,1.14359 -0.21499,2.13422 -0.34375,2.9375 -0.0616,0.38433 -0.12617,0.74625 -0.21875,1.125 -0.0522,0.21363 -0.21022,0.8125 -0.5625,1.375 0.0179,-0.0286 -0.14697,0.3686 -0.25,0.65625 -0.0515,0.14382 -0.0933,0.27729 -0.125,0.375 -0.0159,0.0489 -0.0531,0.0642 -0.0625,0.0937 -0.002,0.007 0.002,0.0245 0,0.0312 -6.4e-4,0.009 6.5e-4,0.0225 0,0.0312 -0.003,0.007 -0.0257,0.0168 -0.0312,0.0312 -0.32716,4.37931 -1.88229,10.85704 -3.59375,15.03125 -0.86564,2.11127 -3.63373,10.17038 -5.9375,17.28125 -1.17683,3.63243 -2.45482,7.23563 -3.59375,10.15625 -1.12568,2.88665 -1.91048,4.93956 -2.9375,6.40625 -0.48399,0.69118 -0.92524,1.34919 -1.1875,1.8125 -0.11688,0.20648 -0.18843,0.42488 -0.25,0.5625 0.0651,-0.14542 0.051,-0.21831 0.0625,-0.28125 0.006,-0.0315 0.0276,-0.0575 0.0312,-0.0937 0.004,-0.0362 0.0158,0.0184 0,-0.25 -0.002,-0.0335 -4e-5,-0.15653 0,-0.15625 -0.0178,0.81338 -0.47509,1.71493 -0.375,1.5 -0.0974,0.20911 -0.21112,0.43967 -0.34375,0.65625 -0.25315,0.41338 -0.52567,0.81899 -0.84375,1.25 -0.65189,0.88334 -1.49337,1.91259 -2.4375,3 -0.39384,0.45361 -0.96409,1.22578 -1.46875,1.875 l 1.3125,0.5625 c 1.4633,-0.66184 2.98677,-1.18626 4.625,-1.21875 0.96505,-0.0191 1.88391,0.10902 2.75,0.375 1.39124,0.42729 2.47831,1.21425 3.84375,2.15625 0.49011,0.33812 1.03369,0.73249 1.5625,1.125 l 2.09375,-17.6875 18.03125,-69.5 -9.21875,-1.5625 z M 195.5,704.25 c 0.26515,0.028 0.54098,0.079 0.8125,0.125 -0.27451,-0.0471 -0.54439,-0.0965 -0.8125,-0.125 z m 91.21875,-11.46875 c 0.40607,0.10831 0.80725,0.21928 1.1875,0.34375 0.9765,0.31965 4.68002,1.06793 7.1875,1.3125 1.31224,0.12798 2.76361,0.30169 4.25,0.5 -4.19152,-0.77312 -8.40986,-1.49813 -12.625,-2.15625 z m -38.6875,-42.46875 c -0.0537,0.309 -0.0227,0.64488 0.0937,0.9375 -0.12016,-0.30202 -0.15319,-0.6182 -0.0937,-0.9375 z M 114.1875,571.875 c -0.084,0.0524 -0.14668,0.10912 -0.25,0.1875 -0.34126,0.25889 -0.83117,0.69035 -1.375,1.21875 -1.09828,1.06713 -2.47032,2.56182 -3.78125,4.15625 -1.30268,1.58439 -2.58775,3.36242 -3.59375,4.875 -1.006,1.51258 -1.74947,2.90182 -1.84375,3.1875 -0.34207,1.0365 -0.38193,2.87506 -0.125,4 0.12213,0.53472 0.30092,0.90524 0.3125,0.9375 0.28242,0.12576 0.65685,0.14732 0.875,0.3125 0.51284,0.3883 0.88764,0.81078 1.15625,1.375 0.35531,0.74633 0.45601,1.49083 0.5,2.09375 0.0909,1.24643 -0.0206,2.61446 -0.25,4.34375 -0.14058,1.05977 -0.1063,1.25939 -0.125,1.8125 0.31443,0.0269 0.6413,0.0387 0.90625,0.0625 1.7702,0.15888 2.9696,1.38224 3.59375,2.4375 0.61859,1.04586 0.92504,2.21913 1.0625,3.4375 0.0697,0.61822 0.2192,1.36741 0.375,1.90625 0.0531,0.18352 0.14242,0.39946 0.21875,0.5625 0.0382,0.0815 0.0865,0.13787 0.125,0.21875 0.0141,0.0295 0.0478,0.11011 0.0937,0.25 0.017,0.0518 -9.5e-4,-0.0307 0.0312,0.0937 0.17816,0.336 0.43662,0.72274 0.53125,0.9375 0.21175,0.48054 0.46071,1.07789 0.71875,1.78125 0.49695,1.35458 1.03504,3.02986 1.53125,4.75 0.96678,3.35142 3.1586,8.79332 5.375,13.53125 1.10719,2.36681 2.22713,4.56313 3.1875,6.28125 0.47208,0.84456 0.9427,1.60011 1.3125,2.15625 0.3698,0.55614 0.77425,0.99009 0.65625,0.875 0.48765,0.47564 0.85045,0.97516 1.375,1.65625 0.53847,0.69917 1.20979,1.58751 1.96875,2.625 1.51615,2.07259 3.37976,4.71524 5.3125,7.46875 3.8652,5.50663 7.85214,11.29912 9.4375,13.9375 1.62246,2.70012 3.27078,4.89513 4.53125,6.1875 0.61594,0.63153 1.19148,1.07476 1.4375,1.21875 0.0876,0.0513 0.0753,0.0348 0.0625,0.0312 -0.003,-8.6e-4 0.007,-0.006 0.0312,0 0.006,10e-4 0.0916,0.0357 0.0937,0.0312 1.63024,-0.1225 3.1624,0.30598 4.4375,0.9375 1.60152,0.79318 3.18634,1.90634 4.71875,3.1875 3.06062,2.55881 5.98432,5.75663 7.3125,9.25 0.2857,0.75143 0.80917,1.24744 1.59375,1.4375 1.52145,0.36855 2.84912,1.19665 4.15625,2.3125 29.05234,-10.61284 29.37254,-13.89324 39.6875,-44.375 -1.17592,-0.37767 -2.31523,-0.74861 -3.34375,-1.125 -2.08711,-0.76378 -3.78143,-1.43356 -5.125,-2.34375 -0.19112,-0.12948 -0.77297,-0.38852 -1.25,-0.5625 -0.23852,-0.087 -0.44084,-0.17426 -0.59375,-0.21875 -0.0764,-0.0222 -0.13557,-0.0264 -0.15625,-0.0312 -0.0207,-0.005 -0.13125,-0.002 0.25,0 -0.84437,-0.004 -1.6076,-0.33845 -1.8125,-0.4375 -0.40042,-0.19356 -0.71825,-0.42015 -1.03125,-0.625 -0.69368,-0.45402 -1.45833,-1.02175 -2.28125,-1.6875 -1.65904,-1.34217 -3.64674,-3.10371 -5.65625,-5.0625 -3.0842,-3.00636 -4.94402,-4.63283 -6.21875,-5.4375 -1.31602,-0.83073 -2.0169,-1.02101 -4.03125,-1.3125 -3.68882,-0.5338 -6.74723,-1.45682 -9.28125,-3.15625 -2.54102,-1.70412 -4.34635,-4.12651 -5.71875,-7.09375 -0.81743,-1.76733 -1.53359,-3.33233 -2.21875,-4.8125 -0.14095,1.10848 -0.18392,2.31474 -0.46875,3.25 -0.24736,0.81225 -0.54845,1.63456 -1.0625,2.40625 -0.47166,0.70805 -1.57005,1.79289 -3.1875,1.90625 0.10269,0.21594 0.25754,0.39421 0.34375,0.625 0.65409,1.75092 0.71875,3.53817 0.71875,5.84375 0,2.84665 -0.40529,5.32842 -1.53125,7.375 -1.16617,2.11966 -3.23248,3.60881 -5.625,3.96875 -4.56887,0.68736 -9.36922,-1.87249 -15.125,-6.28125 -4.84323,-3.70979 -7.37893,-6.54847 -8.5625,-10.21875 -1.14007,-3.53538 -2.73997,-6.9934 -4.21875,-9.375 -0.73288,-1.18032 -1.47178,-2.12318 -1.96875,-2.625 -0.16551,-0.16713 -0.28638,-0.22841 -0.375,-0.28125 -0.01,-0.006 -0.0538,0.005 -0.0625,0 -1.09476,-0.12018 -1.84919,-1.47473 -1.375,-2.46875 l -1.4375,0.65625 -0.8125,-1.8125 1.21875,-0.5625 c -1.04219,-0.38466 -1.43945,-1.90459 -0.71875,-2.75 l 1.03125,-1.21875 1.3125,1.125 c -0.0136,-0.12451 -0.0136,-0.25049 0,-0.375 0.005,-0.15408 0,-0.22503 0,-0.53125 0,-0.6439 -0.60497,-4.17697 -1.28125,-6.09375 -1.2733,-3.6089 -1.63604,-8.62222 -1.53125,-16.0625 0.0332,-2.35192 -0.0455,-4.20353 -0.125,-6 l -4.0625,-0.28125 z m 45.5,-261.3125 c -0.0361,0.0898 -0.12236,0.23971 -0.125,0.25 -0.011,0.0233 -0.0312,0.0938 -0.0312,0.0937 0,-1e-5 3.9e-4,0.0745 0,0.0937 0.0397,-0.19612 0.098,-0.32942 0.15625,-0.4375 z m 89.71875,-33.96875 c 0.0208,0.13542 0.20833,0.13542 0.28125,0 -0.0776,0.002 -0.28125,0 -0.28125,0 z M 212.0625,260.5625 c -0.71358,0.77928 -1.63156,1.36886 -2.6875,1.6875 -1.99635,0.60242 -3.91771,0.37756 -7.28125,0.1875 -3.31867,-0.18752 -4.70515,-0.24935 -5.8125,0.0625 -1.10735,0.31185 -2.43003,1.14672 -5.46875,3.125 -1.69271,1.10198 -3.41569,2.28702 -4.8125,3.28125 -1.37867,0.98132 -2.67396,2.04824 -2.65625,2.03125 -2.27921,2.1868 -5.70099,4.08459 -9.25,5.625 -3.53589,1.53471 -7.05566,2.71875 -10.125,2.71875 -2.65511,0 -4.99097,-0.27145 -7,-1.4375 -1.51462,-0.8791 -2.40916,-2.25849 -3.0625,-3.71875 l -0.96875,-0.28125 c -0.006,0.0102 0.007,0.0211 0,0.0312 -1.03218,1.60743 -2.783,2.01941 -3.96875,2.1875 -0.26182,0.0371 -0.2018,-0.0358 -0.46875,0.34375 -0.2019,0.2871 -0.49116,1.02259 -0.59375,1.96875 -0.20239,1.86647 0.33003,4.63055 1.71875,6.75 0.34495,0.52646 0.74491,1.08891 1.03125,1.875 0.33261,0.91311 0.45925,1.94704 0.0937,3.0625 -0.5859,1.78837 -1.84574,2.7488 -3.25,4 -0.86246,0.70758 -1.54109,1.57622 -2.1875,2.46875 l -0.1875,2.15625 c 0.18789,0.10429 0.34084,0.10161 0.53125,0.25 1.09957,0.85695 1.91249,1.91271 3.0625,3.34375 1.97533,2.45804 4.31241,4.54508 6.40625,5.875 2.07228,1.31622 4.17417,1.75963 4.53125,1.71875 0.0202,-0.002 0.0113,0.002 0.0312,0 0.0421,-0.4502 0.0803,-0.95696 0.0937,-1.75 l 0.0625,-4.5 c 0.0312,-0.76341 0.62729,-1.46782 1.375,-1.625 0.13233,-0.77014 0.84447,-1.40011 1.625,-1.4375 l 7.53125,-0.28125 c 5.52414,-0.21694 10.01857,0.27533 14.65625,1.71875 1.48046,0.46076 2.61548,0.79258 3.40625,1 0.60863,0.15964 0.80969,0.19397 0.9375,0.21875 0.10874,-0.10277 0.0508,-0.0611 0.25,-0.28125 1.70435,-1.88327 4.26098,-3.08865 6.75,-3.78125 1.66849,-0.46428 3.22492,-0.92839 5,-0.4375 0.0863,0.0239 0.13462,0.097 0.21875,0.125 -0.84264,-2.13526 -1.16032,-4.50363 -0.90625,-7.125 0.32263,-3.32876 1.31763,-7.03963 2.9375,-10.8125 3.25517,-7.58167 3.51085,-8.18138 4.78125,-11.78125 0.93502,-2.64952 2.30691,-5.72884 3.65625,-8.5625 z" />
  </g>
</svg>
