<svg xmlns="http://www.w3.org/2000/svg" viewBox="0 0 512 512" style="height: 128px; width: 128px;"><defs><radialGradient id="gradient-6"><stop offset="0%" stop-color="#000000" stop-opacity="1"></stop><stop offset="100%" stop-color="#000000" stop-opacity="1"></stop></radialGradient></defs><path d="M15 15h482v482H15z" fill="#ffffff" stroke="#000000" stroke-width="15"></path><g class="" style="touch-action: none;" transform="translate(0,0)"><g transform="translate(25.6, 25.6) scale(0.9, 0.9) rotate(0, 256, 256)"><path class="" fill="#000000" d="M331.734 20.443C331.117 20.425 330.503 20.536 329.932 20.77C302.196 32.313 282.637 78.265 300.033 97.441C333.553 136.387 372.868 153.014 390.18 225.875C392.787 246.025 391.398 265.969 390.18 286.125C372.868 358.986 333.553 375.613 300.033 414.559C282.637 433.735 302.196 479.687 329.932 491.23C338.97 494.992 357.957 465.065 351.684 466.021C335.344 468.512 313.884 445.08 323.297 437.091C361.767 404.441 428.787 337.036 423.574 301.539C421.363 286.482 414.224 271.179 408 256C414.225 240.82 421.363 225.518 423.574 210.46C428.788 174.964 361.768 107.559 323.297 74.908C313.885 66.92 335.344 43.488 351.684 45.978C357.565 46.875 341.244 20.628 331.734 20.443Z" stroke="#000000" stroke-width="8"></path><path class="selected" fill="#000000" d="M152 24.23L130.559 77.832L152 99.273L173.441 77.832Z" stroke="#000000" stroke-width="10"></path><path class="" fill="#000000" d="M143 115.727L143 412.273L152 403.273L161 412.273L161 115.727L158.363 118.363L152 124.727Z" stroke="#000000" stroke-width="8"></path><path class="" fill="#000000" d="M303 125.574L303 386.398L321 368.868L321 143.104Z"></path><path class="" fill="url(#gradient-6)" d="M152 428.727L129 451.727L129 490.273L152 467.273L175 490.273L175 451.727Z" stroke="#000000" stroke-width="8"></path></g></g><!-- react-empty: 27 --></svg>